
        <svg xmlns="http://www.w3.org/2000/svg" xmlns:xlink="http://www.w3.org/1999/xlink" version="1.1" width="3148.7720261911313" 
        height="503.9209670635732" viewBox="0 0 3148.7720261911313 503.9209670635732">
			
			<g transform="scale(7.438601309556564) translate(10, 10)">
				<defs id="SvgjsDefs1743"></defs><g id="SvgjsG1744" featureKey="nameLeftFeature-0" transform="matrix(1.5904536907552083,0,0,1.5904536907552083,-2.904645804762592,3.945052166364718)" fill="#000000"><path d="M9.4043 12.5488 c1.5918 0.43945 2.6563 1.4844 2.6563 3.4961 c0 2.3828 -1.4453 3.9551 -4.4238 3.9551 l-5.8105 0 l0 -14.111 l4.5703 0 c3.0469 0 4.6484 1.4648 4.6484 3.8672 c0 1.2402 -0.53711 2.2559 -1.6406 2.793 z M6.4258 8.32 l-1.7773 0 l0 3.3203 l1.9043 0 c1.25 0 1.7969 -0.74219 1.7969 -1.6992 c0 -0.9375 -0.61523 -1.6211 -1.9238 -1.6211 z M7.0898 17.4902 c1.582 0 2.1289 -0.84961 2.1289 -1.7676 c0 -0.9375 -0.53711 -1.8262 -2.1875 -1.8262 l-2.3828 0 l0 3.5938 l2.4414 0 z M22.734403125 20.19531 c-4.1504 0 -7.2168 -2.832 -7.2168 -7.2559 c0 -4.4336 3.0664 -7.2461 7.2168 -7.2461 c4.1406 0 7.207 2.8125 7.207 7.2461 c0 4.4238 -3.0664 7.2559 -7.207 7.2559 z M22.734403125 17.5098 c2.4316 0 4.2969 -1.709 4.2969 -4.5703 c0 -2.8516 -1.8652 -4.5508 -4.2969 -4.5508 s-4.2969 1.6992 -4.2969 4.5508 c0 2.8613 1.8652 4.5703 4.2969 4.5703 z M40.703153125 20.19531 c-4.1504 0 -7.2168 -2.832 -7.2168 -7.2559 c0 -4.4336 3.0664 -7.2461 7.2168 -7.2461 c4.1406 0 7.207 2.8125 7.207 7.2461 c0 4.4238 -3.0664 7.2559 -7.207 7.2559 z M40.703153125 17.5098 c2.4316 0 4.2969 -1.709 4.2969 -4.5703 c0 -2.8516 -1.8652 -4.5508 -4.2969 -4.5508 s-4.2969 1.6992 -4.2969 4.5508 c0 2.8613 1.8652 4.5703 4.2969 4.5703 z M60.771703125 20 l-4.3848 -5.9961 l-1.0352 0 l0 5.9961 l-2.9297 0 l0 -14.111 l2.9297 0 l0 5.5469 l0.99609 0 l4.4238 -5.5469 l3.5742 0 l-5.4688 6.748 l5.6348 7.3633 l-3.7402 0 z"></path></g><g id="SvgjsG1745" featureKey="inlineSymbolFeature-0" transform="matrix(1.4920015121667298,0,0,1.4920015121667298,120,0)" fill="#000000"><g xmlns="http://www.w3.org/2000/svg" display="none"><rect x="-289.302" y="-60.667" display="inline" fill="#000000" width="473.333" height="236"></rect></g><g xmlns="http://www.w3.org/2000/svg" display="none"><g display="inline"><g><circle fill="#000000" cx="16" cy="16" r="16"></circle></g></g><g display="inline"><g><rect x="8.668" y="8.668" transform="matrix(0.7071 -0.7071 0.7071 0.7071 -6.6274 16)" fill="#000000" width="14.664" height="14.664"></rect></g><g><rect x="12.552" y="12.552" transform="matrix(0.7071 -0.7071 0.7071 0.7071 -6.6274 16)" fill="#000000" width="6.896" height="6.896"></rect></g></g></g><g xmlns="http://www.w3.org/2000/svg"><g><g><path d="M16,1c8.271,0,15,6.729,15,15s-6.729,15-15,15S1,24.271,1,16S7.729,1,16,1 M16,0C7.163,0,0,7.163,0,16s7.163,16,16,16     s16-7.163,16-16S24.837,0,16,0L16,0z"></path></g></g><g><g><path d="M16,7.045L24.955,16L16,24.955L7.045,16L16,7.045 M16,5.631L5.631,16L16,26.369L26.369,16L16,5.631L16,5.631z"></path></g><g><path d="M16,12.538L19.462,16L16,19.462L12.538,16L16,12.538 M16,11.124L11.124,16L16,20.876L20.876,16L16,11.124L16,11.124z"></path></g></g></g><g xmlns="http://www.w3.org/2000/svg" display="none"><g display="inline"><path fill="#000000" d="M16,31.5C7.453,31.5,0.5,24.547,0.5,16S7.453,0.5,16,0.5S31.5,7.453,31.5,16S24.547,31.5,16,31.5z"></path><g><path d="M16,1c8.271,0,15,6.729,15,15s-6.729,15-15,15S1,24.271,1,16S7.729,1,16,1 M16,0C7.163,0,0,7.163,0,16s7.163,16,16,16     s16-7.163,16-16S24.837,0,16,0L16,0z"></path></g></g><g display="inline"><rect x="9.168" y="9.168" transform="matrix(0.7071 -0.7071 0.7071 0.7071 -6.6274 16)" fill="#000000" width="13.664" height="13.664"></rect><g><path d="M16,7.045L24.955,16L16,24.955L7.045,16L16,7.045 M16,5.631L5.631,16L16,26.369L26.369,16L16,5.631L16,5.631z"></path></g></g><g display="inline"><rect x="13.052" y="13.052" transform="matrix(0.7071 -0.7071 0.7071 0.7071 -6.6274 16)" fill="#000000" width="5.896" height="5.896"></rect><g><path fill="#000000" d="M16,12.538L19.462,16L16,19.462L12.538,16L16,12.538 M16,11.124L11.124,16L16,20.876L20.876,16L16,11.124     L16,11.124z"></path></g></g></g><g xmlns="http://www.w3.org/2000/svg" display="none"><circle display="inline" fill="#000000" cx="16" cy="16" r="16"></circle><rect x="8.668" y="8.668" transform="matrix(0.7071 -0.7071 0.7071 0.7071 -6.6274 16)" display="inline" fill="#000000" width="14.664" height="14.664"></rect><rect x="12.552" y="12.552" transform="matrix(0.7071 -0.7071 0.7071 0.7071 -6.6274 16)" display="inline" fill="#000000" width="6.896" height="6.896"></rect></g></g><g id="SvgjsG1746" featureKey="nameRightFeature-0" transform="matrix(1.5904536907552083,0,0,1.5904536907552083,173.943539472375,3.945052166364718)" fill="#000000"><path d="M16.41601875 12.5488 c1.5918 0.43945 2.6563 1.4844 2.6563 3.4961 c0 2.3828 -1.4453 3.9551 -4.4238 3.9551 l-5.8105 0 l0 -14.111 l4.5703 0 c3.0469 0 4.6484 1.4648 4.6484 3.8672 c0 1.2402 -0.53711 2.2559 -1.6406 2.793 z M13.437518749999999 8.32 l-1.7773 0 l0 3.3203 l1.9043 0 c1.25 0 1.7969 -0.74219 1.7969 -1.6992 c0 -0.9375 -0.61523 -1.6211 -1.9238 -1.6211 z M14.10151875 17.4902 c1.582 0 2.1289 -0.84961 2.1289 -1.7676 c0 -0.9375 -0.53711 -1.8262 -2.1875 -1.8262 l-2.3828 0 l0 3.5938 l2.4414 0 z M23.496121875 20 l0 -14.111 l2.9297 0 l0 14.111 l-2.9297 0 z M39.46289375 12.5488 c1.5918 0.43945 2.6563 1.4844 2.6563 3.4961 c0 2.3828 -1.4453 3.9551 -4.4238 3.9551 l-5.8105 0 l0 -14.111 l4.5703 0 c3.0469 0 4.6484 1.4648 4.6484 3.8672 c0 1.2402 -0.53711 2.2559 -1.6406 2.793 z M36.48439375 8.32 l-1.7773 0 l0 3.3203 l1.9043 0 c1.25 0 1.7969 -0.74219 1.7969 -1.6992 c0 -0.9375 -0.61523 -1.6211 -1.9238 -1.6211 z M37.14839375 17.4902 c1.582 0 2.1289 -0.84961 2.1289 -1.7676 c0 -0.9375 -0.53711 -1.8262 -2.1875 -1.8262 l-2.3828 0 l0 3.5938 l2.4414 0 z M49.472696875 17.4121 l4.4238 0 l0 2.5879 l-7.3535 0 l0 -14.111 l2.9297 0 l0 11.523 z M57.949246875 20 l0 -14.111 l2.9297 0 l0 14.111 l-2.9297 0 z M72.58791875 20.19531 c-4.1504 0 -7.2168 -2.832 -7.2168 -7.2559 c0 -4.4336 3.0664 -7.2461 7.2168 -7.2461 c4.1406 0 7.207 2.8125 7.207 7.2461 c0 4.4238 -3.0664 7.2559 -7.207 7.2559 z M72.58791875 17.5098 c2.4316 0 4.2969 -1.709 4.2969 -4.5703 c0 -2.8516 -1.8652 -4.5508 -4.2969 -4.5508 s-4.2969 1.6992 -4.2969 4.5508 c0 2.8613 1.8652 4.5703 4.2969 4.5703 z M90.17576875 5.888999999999999 c2.7637 0 4.4824 2.0508 4.4824 4.5605 c0 2.5684 -1.7188 4.4922 -4.4824 4.4922 l-2.9395 0 l0 5.0586 l-2.9297 0 l0 -14.111 l5.8691 0 z M89.68746875 12.4902 c1.4648 0 2.1484 -0.81055 2.1484 -2.0801 c0 -1.2207 -0.68359 -2.0703 -2.1484 -2.0703 l-2.4512 0 l0 4.1504 l2.4512 0 z M107.832375 5.888999999999999 l2.9297 0 l0 14.111 l-2.9297 0 l0 -5.8008 l-5.9668 0 l0 5.8008 l-2.9297 0 l0 -14.111 l2.9297 0 l0 5.7617 l5.9668 0 l0 -5.7617 z M116.230496875 20 l0 -14.111 l2.9297 0 l0 14.111 l-2.9297 0 z M127.54886875 17.4121 l4.4238 0 l0 2.5879 l-7.3535 0 l0 -14.111 l2.9297 0 l0 11.523 z M144.20921875 8.467 l-5.2344 0 l0 3.2031 l4.6387 0 l0 2.5488 l-4.6387 0 l0 3.1934 l5.2344 0 l0 2.5879 l-8.1836 0 l0 -14.111 l8.1836 0 l0 2.5781 z"></path></g>
			</g>
		</svg>
	